<?xml version="1.0" standalone="no"?><!DOCTYPE svg PUBLIC "-//W3C//DTD SVG 1.1//EN" "http://www.w3.org/Graphics/SVG/1.1/DTD/svg11.dtd"><svg t="1619922211711" class="icon" viewBox="0 0 1161 1024" version="1.1" xmlns="http://www.w3.org/2000/svg" p-id="935" data-darkreader-inline-fill="" xmlns:xlink="http://www.w3.org/1999/xlink" width="226.7578125" height="200"><defs><style type="text/css"></style></defs><path d="M638.27027 545.297297a21.621622 21.621622 0 0 0-16.432432 40.216217c5.621622 2.162162 132.324324 57.081081 111.135135 259.459459a21.621622 21.621622 0 0 0 19.027027 23.783784h2.594595a21.189189 21.189189 0 0 0 21.189189-19.45946c25.081081-235.675676-131.027027-301.405405-137.513514-304zM788.756757 490.810811c-125.837838 29.405405-152.216216-63.567568-154.810811-74.378379a21.621622 21.621622 0 0 0-43.243243 9.945946A160.432432 160.432432 0 0 0 657.72973 518.918919a157.405405 157.405405 0 0 0 86.486486 22.918919 259.459459 259.459459 0 0 0 55.783784-6.918919 21.621622 21.621622 0 0 0-9.513514-43.243243z" p-id="936"></path><path d="M587.243243 398.27027A129.72973 129.72973 0 1 0 527.567568 389.189189l-162.162163 129.72973a22.486486 22.486486 0 0 0-3.027027 30.702703 21.621622 21.621622 0 0 0 30.270271 3.027027L518.918919 450.162162a155.243243 155.243243 0 0 0 17.297297 150.918919 137.513514 137.513514 0 0 1 23.783784 150.054054 768.432432 768.432432 0 0 1-97.72973 107.675676 21.621622 21.621622 0 0 0 0 30.702703 19.891892 19.891892 0 0 0 15.567568 6.918918 20.756757 20.756757 0 0 0 14.702703-5.621621 824.216216 824.216216 0 0 0 104.648648-115.891892 181.189189 181.189189 0 0 0-28.108108-202.810811c-40.648649-43.243243-4.324324-132.756757 18.162162-173.837838z m-91.675675-129.729729a86.486486 86.486486 0 1 1 86.486486 86.486486 86.486486 86.486486 0 0 1-86.486486-84.756757zM209.72973 0H69.189189A69.189189 69.189189 0 0 0 0 69.189189v140.540541a21.621622 21.621622 0 0 0 21.621622 21.621621 21.621622 21.621622 0 0 0 21.621621-21.621621V69.189189a25.945946 25.945946 0 0 1 25.945946-25.945946h140.540541a21.621622 21.621622 0 0 0 21.621621-21.621621 21.621622 21.621622 0 0 0-21.621621-21.621622zM1092.324324 0H951.351351a21.621622 21.621622 0 0 0-21.621621 21.621622 21.621622 21.621622 0 0 0 21.621621 21.621621h140.540541a25.945946 25.945946 0 0 1 25.945946 25.945946v140.540541a21.621622 21.621622 0 1 0 43.243243 0V69.189189A69.189189 69.189189 0 0 0 1092.324324 0zM1139.891892 792.648649a21.621622 21.621622 0 0 0-21.621622 21.621621v140.540541a25.945946 25.945946 0 0 1-25.945946 25.945946H951.351351a21.621622 21.621622 0 1 0 0 43.243243h140.540541a69.189189 69.189189 0 0 0 69.189189-69.189189v-140.540541a21.621622 21.621622 0 0 0-21.189189-21.621621zM209.72973 980.756757H69.189189a25.945946 25.945946 0 0 1-25.945946-25.945946v-140.540541a21.621622 21.621622 0 0 0-21.621621-21.621621 21.621622 21.621622 0 0 0-21.621622 21.621621v140.540541a69.189189 69.189189 0 0 0 69.189189 69.189189h140.540541a21.621622 21.621622 0 1 0 0-43.243243z" p-id="937"></path></svg>