<?xml version="1.0" standalone="no"?><!DOCTYPE svg PUBLIC "-//W3C//DTD SVG 1.1//EN" "http://www.w3.org/Graphics/SVG/1.1/DTD/svg11.dtd"><svg t="1614735543496" class="icon" viewBox="0 0 1024 1024" version="1.1" xmlns="http://www.w3.org/2000/svg" p-id="2623" data-darkreader-inline-fill="" xmlns:xlink="http://www.w3.org/1999/xlink" width="200" height="200"><defs><style type="text/css"></style></defs><path d="M512 382.57a32.38 32.38 0 0 1 32.35 32.36 32.35 32.35 0 1 0 64.7 0 97 97 0 1 0-162.32 71.86c0.33 0.29 5.22 5.49 6.26 6.95A32 32 0 0 1 453 530a32.33 32.33 0 1 0 53.32 36.59 96.55 96.55 0 0 0-0.15-109.65 232 232 0 0 0-15.9-18 34.08 34.08 0 0 1-5.11-5.88A32.38 32.38 0 0 1 512 382.57z m0-194.14a226.53 226.53 0 0 0-218.74 285.12 32.35 32.35 0 0 0 62.49-16.75 161.76 161.76 0 1 1 318-41.87A165.55 165.55 0 0 1 650.94 498L535.66 738.5a64.8 64.8 0 0 1-56 32.36A65.57 65.57 0 0 1 415 706.15a64.51 64.51 0 0 1 8.69-32.33 32.37 32.37 0 1 0-56-32.42 129.36 129.36 0 1 0 225.15 127.28l115.28-240.5A226.5 226.5 0 0 0 512 188.43z" p-id="2624"></path></svg>